<?xml version="1.0" encoding="utf-8"?>
<!-- Generator: Adobe Illustrator 17.0.0, SVG Export Plug-In . SVG Version: 6.00 Build 0)  -->
<!DOCTYPE svg PUBLIC "-//W3C//DTD SVG 1.1//EN" "http://www.w3.org/Graphics/SVG/1.1/DTD/svg11.dtd">
<svg version="1.1" id="Layer_1" xmlns="http://www.w3.org/2000/svg" xmlns:xlink="http://www.w3.org/1999/xlink" x="0px" y="0px"
	 width="13px" height="13px" viewBox="0 0 13 13" enable-background="new 0 0 13 13" xml:space="preserve">
<g>
	<path fill="#FFFFFF" d="M6.5,0C2.91,0,0,2.91,0,6.5C0,10.09,2.91,13,6.5,13c3.59,0,6.5-2.91,6.5-6.5C13,2.91,10.09,0,6.5,0z
		 M6.5,10.253c-0.569,0-1.03-0.461-1.03-1.03c0-0.569,0.461-1.03,1.03-1.03c0.569,0,1.03,0.461,1.03,1.03
		C7.53,9.792,7.069,10.253,6.5,10.253z M9.02,4.758C8.787,4.96,8.466,5.117,8.06,5.248C7.75,5.35,7.544,5.442,7.479,5.487
		c-0.083,0.06-0.118,0.116-0.133,0.227c0.001,0.023,0.003,0.225,0.003,0.225C7.36,6.676,6.815,7.273,6.483,7.273
		c-0.75,0-0.861-1.333-0.861-1.333c0-0.101,0.008-0.248,0.008-0.248C5.626,5.326,5.795,4.992,6.101,4.763L6.1,4.762
		C6.102,4.761,6.104,4.76,6.105,4.759c0.001-0.001,0.002-0.002,0.003-0.003l0,0C6.312,4.595,6.592,4.464,6.96,4.338l0.001,0
		C7.111,4.287,7.232,4.245,7.32,4.212c0.087-0.032,0.147-0.059,0.156-0.064L7.48,4.145c0.059-0.031,0.089-0.059,0.103-0.077
		l0.018-0.055C7.599,3.959,7.587,3.926,7.556,3.885C7.526,3.846,7.468,3.799,7.37,3.753C7.172,3.661,6.89,3.605,6.52,3.605
		c-0.377,0-0.663,0.059-0.863,0.159C5.543,3.821,5.474,3.882,5.43,3.945C5.387,4.008,5.364,4.077,5.363,4.174v0.014l-0.001,0.01
		C5.36,4.211,5.349,4.309,5.297,4.438C5.244,4.565,5.148,4.732,4.954,4.853c-0.128,0.08-0.298,0.131-0.489,0.13
		c-0.182,0.001-0.344-0.04-0.471-0.112C3.866,4.8,3.778,4.702,3.723,4.608c-0.11-0.19-0.113-0.362-0.115-0.423l0.001-0.011h0
		c0-0.003,0.001-0.005,0.001-0.008l0.001-0.022l0,0c0.005-0.269,0.086-0.523,0.245-0.742C4.021,3.175,4.26,2.987,4.561,2.835
		C5.102,2.564,5.758,2.434,6.52,2.434c0.744,0,1.395,0.124,1.941,0.385C8.749,2.957,8.98,3.122,9.143,3.324
		c0.163,0.201,0.25,0.44,0.248,0.689C9.394,4.294,9.254,4.558,9.02,4.758z"/>
</g>
</svg>
