<?xml version="1.0" encoding="utf-8"?>
<!DOCTYPE svg PUBLIC "-//W3C//DTD SVG 1.1//EN" "http://www.w3.org/Graphics/SVG/1.1/DTD/svg11.dtd">
<svg version="1.1" id="Layer_1" xmlns="http://www.w3.org/2000/svg" xmlns:xlink="http://www.w3.org/1999/xlink" x="0px" y="0px"
	 width="80px" height="80px" viewBox="0 0 80 80" enable-background="new 0 0 80 80" xml:space="preserve">
<g>
	<path fill="#003D78" d="M41.618,49.424c-0.315,0-0.823,0-1.056,0v2.121l1.193,0.01c0,0,0.214-0.046,0.214-0.307
		c0-0.26,0-1.472,0-1.472S42.038,49.424,41.618,49.424z"/>
	<path fill="#003D78" d="M27.856,45.241c0.247-0.079,1.297-0.423,1.297-0.423s0.355-0.047,0.226-0.444
		c-0.046-0.14-1.144-3.493-1.235-3.773c-0.131-0.399-0.443-0.225-0.443-0.225s-1.051,0.344-1.299,0.425
		c-0.248,0.082-0.224,0.299-0.224,0.299l1.319,4.032C27.498,45.132,27.607,45.322,27.856,45.241z"/>
	<path fill="#003D78" d="M34.498,41.546c0,0,0.213-0.076,0.177-0.339c-0.036-0.265-0.185-2.086-0.185-2.086s0.021-0.366-0.405-0.309
		c-0.266,0.036-0.808,0.13-1.194,0.197l0.357,2.692L34.498,41.546z"/>
	<path fill="#003D78" d="M39.52,43.121c0.261,0,1.366,0,1.366,0s0.351,0.067,0.351-0.352c0-0.146,0-3.676,0-3.97
		c0-0.42-0.351-0.352-0.351-0.352s-1.106,0-1.366,0c-0.26,0-0.306,0.215-0.306,0.215v4.242
		C39.213,42.903,39.258,43.121,39.52,43.121z"/>
	<polygon fill="#003D78" points="34.565,52.28 35.854,52.28 35.21,49.76 	"/>
	<polygon fill="#003D78" points="39.884,58.058 39.24,60.578 40.528,60.578 	"/>
	<path fill="#003D78" d="M59.558,43.307c0,0-0.987-0.498-1.219-0.616c-0.232-0.118-0.371,0.055-0.371,0.055l-1.918,3.783
		c0,0-0.057,0.213,0.177,0.331c0.232,0.117,1.218,0.616,1.218,0.616s0.282,0.221,0.472-0.153c0.066-0.131,1.661-3.279,1.794-3.542
		C59.901,43.406,59.558,43.307,59.558,43.307z"/>
	<g>
		<path fill="#003D78" d="M40.834,79.285c0,0-0.227-0.188-0.567-0.547c-0.849-0.909-2.756-3.337-2.864-6.887
			c-1.848,0.969-3.966,1.805-6.293,2.483c-3.375,0.984-5.96,1.282-6.068,1.295l-0.701,0.078l0.157-0.687
			c0.298-1.308,0.917-2.575,1.377-3.4c-4.117,0.635-5.684,0.688-6.085,0.688h-0.619l0.065-0.606
			c0.083-0.388,0.351-1.097,0.794-2.107c0.061-0.137,0.12-0.271,0.176-0.396c-0.435,0.109-0.92,0.217-1.452,0.321
			c-2.695,0.534-5.781,0.846-5.812,0.849l-0.896,0.09l0.397-0.808c1.281-2.606,4.607-5.801,6.476-7.474
			c0.118-0.105,0.227-0.202,0.326-0.288c-4.34-2.135-5.126-3.235-5.204-3.359L13.79,58.13l0.385-0.274
			c0.315-0.225,0.688-0.458,1.105-0.692c1.609-0.902,3.628-1.672,5.033-2.157c-3.086-0.813-4.446-1.528-4.511-1.562l-0.439-0.234
			l0.233-0.44c0.37-0.699,1.198-1.533,1.812-2.097c-4.432-1.94-5.861-3.561-5.923-3.632l-0.278-0.323l0.275-0.326
			c0.596-0.705,1.33-1.349,1.841-1.764c0.139-0.112,0.268-0.215,0.385-0.305c-2.753-1.829-4.869-3.821-5.923-4.888
			c-0.341-0.346-0.524-0.549-0.524-0.549l-0.275-0.305l0.246-0.33c0.115-0.153,0.364-0.431,1.203-1.066
			c0.102-0.077,0.201-0.151,0.294-0.219c-1.956-1.657-3.914-4.901-4.004-5.051l-0.245-0.409l0.396-0.265
			c0.872-0.582,2.048-0.823,2.812-0.922c-0.343-0.712-0.645-1.524-0.902-2.422c-0.468-1.634-0.613-2.964-0.619-3.02l-0.074-0.688
			l0.677,0.146c1.537,0.333,3.024,0.82,4.421,1.445c0.437,0.196,0.794,0.375,1.064,0.518c0.035-0.137,0.069-0.268,0.103-0.394
			c0.595-2.183,1.189-2.763,1.302-2.856l0.242-0.202l0.286,0.131c0.216,0.1,0.46,0.243,0.747,0.44
			c0.257,0.175,0.537,0.387,0.826,0.621c0.508,0.41,1.102,0.931,1.719,1.506c0.626,0.582,1.192,1.139,1.561,1.508
			c0.506-0.653,1.266-1.352,1.375-1.451l0.397-0.361l0.333,0.422c3.122,3.966,6.516,6.916,8.222,8.292
			c-0.641-1.805-2.113-4.81-3.13-6.722l-0.145-0.273l0.179-0.252c0.314-0.441,0.932-0.502,1.553-0.502l0.342,0.003
			c-0.304-0.484-0.581-0.947-0.831-1.388c-2.374-4.161-2.541-6.406-2.547-6.5l-0.033-0.515l0.722-0.02
			c1.292,0,2.839,0.364,3.742,0.612c-0.215-1.853-0.105-3.479,0.039-4.569c0.177-1.351,0.438-2.186,0.45-2.221l0.144-0.454
			l0.46,0.121c0.738,0.194,1.842,0.723,2.601,1.111c-0.007-0.101-0.013-0.201-0.018-0.302c-0.047-1.062,0.023-2.222,0.212-3.448
			c0.101-0.655,0.217-1.208,0.308-1.595c0.093-0.395,0.161-0.624,0.161-0.624l0.146-0.497l0.491,0.164
			c0.391,0.13,0.936,0.359,1.664,0.701c0.165,0.078,0.319,0.151,0.453,0.216c0.822-2.037,1.622-3.507,2.165-4.406
			C39.143,1.526,39.581,1,39.599,0.979l0.383-0.458l0.383,0.458C40.434,1.061,41.999,2.955,43.632,7
			c0.564-0.274,1.492-0.708,2.116-0.917l0.493-0.165l0.146,0.499c0,0,0.066,0.228,0.159,0.624c0.091,0.386,0.208,0.939,0.308,1.594
			c0.189,1.228,0.26,2.388,0.211,3.448c-0.004,0.102-0.01,0.202-0.017,0.303c0.758-0.388,1.862-0.917,2.601-1.111l0.46-0.121
			l0.144,0.453c0.011,0.035,0.273,0.869,0.451,2.221c0.197,1.515,0.21,3.079,0.037,4.569c0.903-0.248,2.451-0.612,3.742-0.612
			l0.723,0.02l-0.033,0.515c-0.008,0.117-0.215,2.847-3.378,7.887l0.334-0.003c0.625,0,1.246,0.061,1.561,0.5l0.181,0.252
			l-0.146,0.274c-1.018,1.913-2.49,4.919-3.131,6.725c0.2-0.162,0.424-0.344,0.666-0.548c0.878-0.732,1.771-1.531,2.653-2.375
			c1.139-1.086,2.226-2.218,3.232-3.364c0.571-0.651,1.135-1.327,1.673-2.009l0.332-0.42l0.396,0.359
			c0.031,0.029,0.784,0.713,1.303,1.357c0.025,0.032,0.051,0.063,0.074,0.094c0.047-0.047,0.783-0.771,0.783-0.771
			c0.954-0.922,1.795-1.677,2.498-2.243c0.289-0.233,0.567-0.444,0.823-0.621c0.279-0.191,0.53-0.338,0.744-0.438l0.288-0.134
			l0.243,0.203c0.113,0.094,0.706,0.674,1.303,2.856c0.034,0.125,0.068,0.256,0.103,0.394c0.271-0.143,0.628-0.322,1.064-0.517
			c0.961-0.431,2.508-1.031,4.422-1.446l0.677-0.146l-0.074,0.688c-0.014,0.13-0.33,2.968-1.521,5.441
			c0.765,0.099,1.939,0.341,2.812,0.922l0.395,0.263l-0.352,0.588c-0.521,0.836-2.216,3.448-3.893,4.873
			c0.298,0.219,0.665,0.499,0.966,0.756c0.246,0.21,0.419,0.383,0.528,0.527l0.25,0.33l-0.277,0.308
			c-0.112,0.124-2.66,2.921-6.446,5.435c0.59,0.455,1.505,1.218,2.225,2.07l0.274,0.324l-0.277,0.324l-0.093,0.101
			c-0.116,0.116-0.342,0.333-0.717,0.629c-0.443,0.35-0.966,0.71-1.553,1.071c-0.752,0.462-1.617,0.927-2.571,1.38
			c-0.312,0.148-0.643,0.299-0.99,0.451c0.614,0.565,1.445,1.4,1.813,2.096l0.233,0.44l-0.439,0.235
			c-0.065,0.034-1.425,0.749-4.511,1.562c1.059,0.366,2.467,0.895,3.789,1.521c0.953,0.449,1.743,0.897,2.35,1.331l0.384,0.274
			l-0.252,0.398c-0.078,0.124-0.864,1.225-5.204,3.358c1.492,1.31,5.394,4.896,6.803,7.764l0.396,0.808l-0.896-0.09
			c-0.198-0.02-4.367-0.442-7.266-1.171c0.057,0.127,0.116,0.26,0.176,0.397c0.444,1.011,0.712,1.72,0.795,2.105l0.124,0.581
			c0,0-0.604,0.024-0.608,0.024c-0.5,0-2.084-0.059-6.156-0.687c0.46,0.825,1.078,2.093,1.377,3.4l0.167,0.729l-0.737-0.124
			c-0.046-0.008-4.577-0.782-9.005-2.272c-1.538-0.516-2.907-1.066-4.072-1.639c0.002,0.214,0.026,0.43,0.07,0.647
			c0.232,1.16,0.991,2.412,2.256,3.723l0.353,0.365l-3.321,3.12L40.834,79.285z M44.778,62.504v-2.56h1.907v-0.333h-1.907v-2.228
			h2.638v-0.333h-2.973v5.453H44.778z M35.286,62.504V62.17h-2.639v-2.226h1.908v-0.333h-1.908v-2.228h2.639v-0.333h-2.972v5.453
			H35.286z M29.657,62.504v-0.332h-2.414v-5.121H26.91v5.453H29.657z M50.021,61.848c0.029,0.558,0.541,0.644,0.697,0.655
			l2.271-0.001c0.419-0.027,0.471-0.53,0.477-0.631l-0.001-1.293c0-0.225-0.087-0.287-0.098-0.294l-2.181-0.914
			c-0.734-0.283-0.81-0.689-0.79-0.902v-0.242c0-0.719,0.53-1.046,1.023-1.046l0.109,0.006l0.529-0.004
			c0.514,0,0.808,0.207,0.965,0.381c0.094,0.104,0.157,0.215,0.2,0.322h0.348v-0.181c0-0.606-0.508-0.653-0.664-0.653h-2.305
			c-0.465,0.068-0.478,0.506-0.475,0.594c0,0.036-0.025,0.804-0.001,1.307c0.03,0.099,0.35,0.329,0.631,0.448l1.685,0.638
			c0.699,0.281,0.753,0.729,0.753,0.859v0.431c0,0.724-0.438,1.047-0.872,1.047l-0.119-0.009l-1.059,0.007
			c-0.229,0-0.439-0.092-0.591-0.259c-0.119-0.131-0.187-0.291-0.225-0.445h-0.309V61.848z M41.835,62.502l-1.392-5.452h-1.118
			l-1.394,5.452h0.301l0.319-1.244h2.665l0.318,1.244H41.835z M45.924,54.227l0.5-0.023h1.78v-0.332h-2.28v-5.098h-0.333v5.453
			H45.924z M40.062,54.227v-1.914h1.987c0.204,0,0.478-0.031,0.617-0.18c0.101-0.107,0.104-0.251,0.104-0.252L42.771,49.2
			c0-0.372-0.463-0.428-0.482-0.43l-2.558,0.003v5.453H40.062z M30.667,54.227v-5.453H30.48l-1.682,3.775l-1.709-3.775H26.91v5.453
			h0.206V49.83l1.69,3.391l1.656-3.173v4.179H30.667z M53.467,54.205v-0.334h-2.436v-2.227h1.686v-0.332h-1.686v-2.229h2.436v-0.331
			h-2.769v5.452H53.467z M37.161,54.203l-1.392-5.452H34.65l-1.393,5.452h0.301l0.318-1.245h2.666l0.318,1.245H37.161z
			 M57.965,41.655c-0.195,0-0.377,0.162-0.539,0.482l-2.185,4.31c-0.131,0.257-0.173,0.473-0.122,0.625
			c0.05,0.148,0.186,0.216,0.19,0.219l2.383,1.208c0.061,0.031,0.117,0.047,0.171,0.047c0.192,0,0.381-0.212,0.431-0.286
			l2.421-4.783c0.015-0.055,0.116-0.42-0.188-0.573l-2.362-1.197C58.146,41.695,58.066,41.655,57.965,41.655z M23.822,48.121
			l0.293-0.17l-3.005-5.448l1.499-0.856l-0.076-0.164L19.326,43.2l0.111,0.197l1.417-0.807L23.822,48.121z M28.232,39.379
			c-0.04,0-0.084,0.008-0.132,0.023l-2.518,0.825c-0.025,0.008-0.17,0.055-0.242,0.195c-0.073,0.142-0.064,0.361,0.025,0.634
			l1.504,4.592c0.123,0.375,0.299,0.565,0.524,0.565c0.071,0,0.123-0.018,0.123-0.018l2.535-0.831
			c0.323-0.106,0.278-0.482,0.257-0.596l-1.67-5.09c0,0,0,0,0,0C28.633,39.68,28.466,39.379,28.232,39.379z M51.556,45.837
			l2.018-5.751l1.599,0.528l0.056-0.14l-3.476-1.246l-0.089,0.237l1.655,0.571l-2.009,5.692L51.556,45.837z M32.896,44.839
			l0.258-0.036l-0.297-2.244l1.353-0.182l1.5,1.952l0.235-0.034l-1.455-1.877l0.655-0.229c0.466-0.164,0.432-0.487,0.432-0.49
			c-0.002-0.016-0.233-2.442-0.345-3.271c-0.047-0.348-0.434-0.378-0.559-0.379l-2.607,0.354L32.896,44.839z M47.931,44.813
			l1.021-6.245l-0.316-0.066l-0.921,5.519L45.591,38l-0.235-0.035l-0.995,6.194l0.334,0.039l0.895-5.489l2.023,6.041L47.931,44.813z
			 M38.897,37.646c-0.165,0-0.443,0.094-0.443,0.721v4.832c0,0.627,0.277,0.72,0.443,0.72h2.669c0.366,0,0.424-0.43,0.429-0.479
			l-0.003-5.367c-0.012-0.055-0.086-0.427-0.426-0.427L38.897,37.646z"/>
		<path fill="#FFFFFF" d="M39.982,1.3c0,0,1.692,2.021,3.384,6.389c0,0,1.633-0.829,2.54-1.131c0,0,0.063,0.218,0.152,0.598
			c0.09,0.378,0.203,0.917,0.301,1.556c0.147,0.958,0.262,2.142,0.206,3.349c-0.018,0.402-0.055,0.808-0.115,1.208
			c0,0,2.177-1.208,3.325-1.511c0,0,0.258,0.812,0.432,2.135c0.173,1.323,0.264,3.158-0.068,5.203c0,0,2.486-0.811,4.344-0.811
			c0.064,0,0.128,0.001,0.19,0.003c0,0-0.181,2.841-3.627,8.162c0,0-0.06,0.183,0.362,0.243c0.08,0.012,0.186,0.015,0.307,0.015
			c0.126,0,0.268-0.003,0.413-0.003c0.461,0,0.968,0.032,1.154,0.292c0,0-3.507,6.591-3.507,8.224c0,0,0.697-0.501,1.805-1.429
			c0.74-0.618,1.66-1.425,2.678-2.397c1.02-0.973,2.135-2.112,3.263-3.396c0.562-0.641,1.129-1.319,1.689-2.029
			c0,0,0.749,0.679,1.249,1.3c0.168,0.207,0.309,0.408,0.385,0.573c0,0,0.223-0.231,0.581-0.587
			c0.181-0.178,0.393-0.389,0.629-0.618c0.711-0.687,1.63-1.542,2.464-2.213c0.278-0.225,0.546-0.428,0.793-0.598
			c0.248-0.17,0.476-0.306,0.672-0.397c0,0,0.556,0.463,1.141,2.604c0.084,0.306,0.167,0.646,0.251,1.024
			c0,0,0.574-0.363,1.603-0.824c1.027-0.46,2.51-1.021,4.323-1.414c0,0-0.363,3.387-1.813,5.926c0,0,2.055,0.061,3.324,0.907
			c0,0-0.036,0.061-0.104,0.171c-0.481,0.772-2.511,3.934-4.306,5.15c0,0,0.883,0.612,1.479,1.123
			c0.199,0.17,0.363,0.329,0.455,0.45c0,0-2.843,3.145-6.953,5.744c0,0,1.618,1.113,2.721,2.419c0,0-0.024,0.028-0.074,0.08
			c-0.103,0.103-0.314,0.306-0.666,0.583c-0.353,0.278-0.843,0.631-1.505,1.038c-0.661,0.406-1.493,0.864-2.524,1.354
			c-0.517,0.244-1.082,0.497-1.701,0.754c0,0,0.108,0.09,0.281,0.242c0.52,0.457,1.608,1.466,2.017,2.236
			c0,0-1.814,0.969-6.107,1.936c0,0,2.892,0.85,5.407,2.041c0.839,0.396,1.638,0.831,2.272,1.285c0,0-0.726,1.148-5.685,3.507
			c0,0,5.563,4.655,7.257,8.103c0,0-5.444-0.545-8.225-1.451c0,0,0.303,0.635,0.627,1.375c0.325,0.74,0.673,1.588,0.764,2.011
			c0,0-0.021,0.001-0.067,0.001c-0.346,0-2.106-0.047-7.068-0.849c0,0,1.391,2.056,1.874,4.173c0,0-4.486-0.758-8.929-2.253
			c-1.479-0.496-2.954-1.076-4.258-1.736c-0.125-0.032-0.209-0.045-0.267-0.045c-0.136,0-0.13,0.07-0.176,0.126
			c-0.017,0.112-0.029,0.238-0.031,0.378c-0.005,0.244,0.014,0.532,0.08,0.859c0.197,0.984,0.807,2.333,2.387,3.971L41.153,78.9
			c0,0-0.209-0.174-0.523-0.506c-0.937-1.004-2.804-3.464-2.729-7.064h-0.002c0,0,0.049-0.181-0.121-0.181
			c-0.066,0-0.166,0.027-0.313,0.104l-0.001-0.001c-2.172,1.174-4.47,2.013-6.494,2.603c-3.373,0.984-5.984,1.278-5.984,1.278
			c0.483-2.117,1.874-4.173,1.874-4.173c-4.971,0.802-6.728,0.849-7.069,0.849c-0.044,0-0.065-0.001-0.065-0.001
			c0.091-0.425,0.438-1.271,0.764-2.012c0.325-0.739,0.627-1.376,0.627-1.376c-0.694,0.228-1.557,0.432-2.458,0.609
			c-2.703,0.535-5.765,0.842-5.765,0.842c1.27-2.584,4.716-5.85,6.361-7.321c0.548-0.49,0.895-0.78,0.895-0.78
			c-4.958-2.358-5.684-3.507-5.684-3.507c0.317-0.227,0.675-0.448,1.06-0.664c2.685-1.504,6.62-2.661,6.62-2.661
			c-4.293-0.968-6.107-1.936-6.107-1.936c0.408-0.771,1.496-1.78,2.015-2.236c0.172-0.152,0.282-0.242,0.282-0.242
			c-4.958-2.056-6.47-3.81-6.47-3.81c0.552-0.653,1.232-1.258,1.774-1.699c0.272-0.221,0.508-0.401,0.677-0.525
			c0.169-0.125,0.271-0.193,0.271-0.193c-3.083-1.951-5.453-4.208-6.446-5.213c-0.331-0.335-0.508-0.532-0.508-0.532
			c0.182-0.243,0.666-0.635,1.104-0.968c0.438-0.332,0.831-0.604,0.831-0.604c-2.056-1.391-4.415-5.322-4.415-5.322
			c1.27-0.847,3.325-0.907,3.325-0.907c-0.544-0.952-0.935-2.023-1.211-2.991c-0.461-1.611-0.603-2.935-0.603-2.935
			c1.814,0.394,3.295,0.953,4.323,1.413c1.028,0.461,1.602,0.824,1.602,0.824c0.084-0.378,0.168-0.719,0.252-1.024
			c0.584-2.142,1.14-2.604,1.14-2.604c0.197,0.09,0.423,0.227,0.672,0.397c0.249,0.169,0.517,0.373,0.794,0.598
			c0.555,0.448,1.149,0.977,1.692,1.483c1.089,1.012,1.981,1.935,1.981,1.935c0.302-0.665,1.632-1.874,1.632-1.874
			c4.474,5.683,9.433,9.251,9.433,9.251c0-1.633-3.507-8.224-3.507-8.224c0.185-0.259,0.687-0.292,1.146-0.292
			c0.153,0,0.302,0.003,0.433,0.003c0.116,0,0.218-0.002,0.295-0.014c0.423-0.061,0.362-0.243,0.362-0.243
			c-0.43-0.666-0.811-1.292-1.145-1.879c-2.344-4.109-2.482-6.285-2.482-6.285c0.063-0.002,0.126-0.003,0.19-0.003
			c1.858,0,4.344,0.811,4.344,0.811c-0.332-2.045-0.241-3.879-0.067-5.203c0.173-1.323,0.431-2.135,0.431-2.135
			c1.148,0.302,3.325,1.511,3.325,1.511c-0.06-0.4-0.097-0.806-0.116-1.208c-0.054-1.208,0.06-2.392,0.207-3.35
			c0.098-0.639,0.211-1.178,0.301-1.556c0.089-0.378,0.153-0.598,0.153-0.598c0.454,0.151,1.088,0.435,1.61,0.679
			c0.521,0.245,0.93,0.452,0.93,0.452c0.847-2.187,1.692-3.785,2.328-4.835C39.559,1.805,39.982,1.3,39.982,1.3 M39.861,16.664
			c-0.946-0.985-2.962-3.755-2.962-3.755c1.229,2.568,2.629,4.045,2.951,4.368c-0.039,2.304-0.069,4.793-0.093,7.177
			c-1.481-0.766-3.855-3.836-3.855-3.836c1.504,3.084,3.25,4.102,3.85,4.375c-0.023,2.343-0.04,4.497-0.052,6.18
			c-3.318-1.976-6.822-6.383-6.823-6.385c1.866,3.981,6.144,6.702,6.818,7.112c-0.01,1.608-0.015,2.623-0.015,2.623h0.758
			l-0.016-1.854c5.847-4.504,6.635-7.578,6.635-7.578c-3.146,4.525-5.923,6.357-6.641,6.783l-0.087-10.341
			c2.32-0.964,3.765-3.001,3.765-3.001c-1.729,1.536-3.211,2.325-3.768,2.595L40.225,8.883c-0.011-0.041-0.022-0.06-0.034-0.06
			C40.045,8.823,39.938,12.286,39.861,16.664 M16.634,36.055c-0.767,0-2.331-0.164-4.505-1.235c0,0,1.119,1.577,5.321,1.708H17.45
			c1.318,1.372,2.351,2.438,2.375,2.466c0.061,0.072,0.106,0.091,0.138,0.091c0.035,0,0.052-0.023,0.052-0.023
			s0.427-0.278,0.464-0.327s-0.111-0.186-0.111-0.186l-0.562-0.54c-0.079-3.288-1.646-4.503-1.646-4.503
			c1.27,1.923,1.239,3.656,1.211,4.083l-3.5-3.372c0.056-0.603,0.148-2.413-0.658-3.501c0,0,0.45,1.386,0.225,3.083l-4.452-4.289
			c-0.132,0.101,3.363,3.785,6,6.531C16.897,36.049,16.78,36.055,16.634,36.055 M63.587,34.511c-0.025-0.72-0.088-3.115,0.143-3.507
			c0,0-0.497,0.122-0.543,3.897l-3.78,3.706c-0.009,0.063,0.037,0.071,0.074,0.092c0.272,0.146,0.432,0.181,0.522,0.181
			c0.083,0,0.107-0.03,0.107-0.03l1.528-1.629c0.074,0.002,0.147,0.002,0.221,0.002c3.007,0,4.721-1.435,4.721-1.435
			c-2.029,0.767-3.237,0.939-3.915,0.939c-0.232,0-0.403-0.021-0.522-0.044l6.561-6.988c0-0.076-0.022-0.101-0.053-0.101
			c-0.061,0-0.151,0.101-0.151,0.101L63.587,34.511 M38.897,44.419c0.013,0,0.021,0,0.021,0s1.826,0,2.649,0
			c0.825,0,0.926-0.925,0.926-0.925v-5.421c0,0-0.102-0.927-0.926-0.927c-0.823,0-2.649,0-2.649,0s-0.007,0-0.021,0
			c-0.139,0-0.943,0.051-0.943,1.221c0,1.018,0,4.123,0,4.832C37.954,44.369,38.758,44.419,38.897,44.419 M45.11,44.752l0.646-3.967
			l1.474,4.398l1.11,0.221l1.181-7.227l-1.294-0.273l-0.688,4.12l-1.578-4.475l-1.021-0.151l-1.156,7.195L45.11,44.752
			 M32.465,45.404l1.25-0.176l-0.297-2.241c0.087-0.012,0.282-0.037,0.572-0.076l1.502,1.954l1.375-0.197l-1.556-2.008
			c0.852-0.299,0.762-1.023,0.762-1.023s-0.233-2.442-0.345-3.276c-0.106-0.792-0.972-0.812-1.058-0.812c-0.004,0-0.007,0-0.007,0
			l-1.932,0.26l-1.224,0.164L32.465,45.404 M51.849,46.514l2.034-5.799l1.578,0.521l0.424-1.058l-4.429-1.587l-0.44,1.18
			l1.664,0.574l-1.995,5.653L51.849,46.514 M27.393,46.714c0.174,0,0.297-0.049,0.297-0.049s1.734-0.568,2.517-0.825
			c0.783-0.258,0.592-1.168,0.592-1.168l-1.687-5.153c0,0-0.291-0.64-0.88-0.64c-0.089,0-0.185,0.015-0.288,0.048
			c-0.783,0.257-2.517,0.825-2.517,0.825s-0.936,0.243-0.537,1.46c0.318,0.967,1.284,3.918,1.504,4.592
			C26.646,46.572,27.095,46.714,27.393,46.714 M19.249,44.08l1.406-0.801l2.97,5.532l1.165-0.673l-3.004-5.446l1.47-0.84
			l-0.492-1.061l-4.126,2.209L19.249,44.08 M57.863,49.046c0.515,0,0.847-0.508,0.847-0.508l2.451-4.836
			c0,0,0.328-0.872-0.407-1.245s-2.363-1.197-2.363-1.197s-0.178-0.104-0.426-0.104c-0.289,0-0.674,0.142-0.985,0.757
			c-0.459,0.907-1.864,3.677-2.185,4.309c-0.579,1.146,0.308,1.525,0.308,1.525s1.628,0.826,2.363,1.199
			C57.607,49.017,57.74,49.046,57.863,49.046 M32.614,54.703h1.333l0.318-1.245h1.889l0.318,1.245h1.333l-1.647-6.452h-0.562h-0.77
			h-0.563L32.614,54.703 M50.198,54.705h0.962h0.371h2.436v-1.334h-2.436v-1.227h1.686v-1.332h-1.686v-1.229h2.436v-1.331h-2.436
			h-0.666h-0.667V54.705 M45.091,54.727h1.333v-0.023h2.28v-1.332h-2.28v-5.098h-1.333V54.727 M39.23,54.727h1.332v-1.914
			c0.179,0,0.593,0,1.487,0c1.28,0,1.221-0.963,1.221-0.963s0-1.824,0-2.649c0-0.823-0.927-0.927-0.927-0.927h-1.781h-0.125H39.23
			V54.727 M28.795,51.328l-1.383-3.055H26.41v6.453h1.206v-2.772l1.18,2.367l1.166-2.234v2.64h1.205v-6.453h-1.011L28.795,51.328
			 M37.287,63.002h1.333l0.319-1.244h1.889l0.318,1.244h1.333l-1.647-6.452h-0.562h-0.771h-0.562L37.287,63.002 M52.323,61.874
			c-0.022,0-0.036-0.002-0.036-0.002h-1.142c-0.423,0-0.354-0.704-0.354-0.704h-1.27v0.68c0.056,1.09,1.163,1.154,1.163,1.154h2.305
			c0.935-0.059,0.976-1.107,0.976-1.107s0-0.794,0-1.316c0-0.583-0.374-0.74-0.374-0.74l-2.211-0.929
			c-0.539-0.208-0.483-0.409-0.483-0.409v-0.274c0-0.501,0.384-0.546,0.523-0.546c0.031,0,0.051,0.002,0.051,0.002h0.588
			c0.823,0,0.75,0.703,0.75,0.703h1.262h0.001v-0.68c0-1.154-1.164-1.154-1.164-1.154h-2.305c-1.006,0.138-0.975,1.109-0.975,1.109
			s-0.025,0.795,0,1.315c0.024,0.506,0.938,0.885,0.938,0.885l1.699,0.645c0.431,0.173,0.431,0.392,0.431,0.392v0.431
			C52.695,61.829,52.422,61.874,52.323,61.874 M43.943,63.004h1.335v-2.56h1.907v-1.333v-0.002v0.002h-1.907v-1.228h2.638v-1.333
			h-2.638H44.61h-0.667V63.004 M31.813,63.004h0.667h0.667h2.639V61.67h-2.639v-1.226h1.908v-1.333v-0.002v0.002h-1.908v-1.228
			h2.639v-1.333h-2.639H32.48h-0.667V63.004 M26.41,63.004h0.667h0.667h2.414v-1.332V61.67v0.002h-2.414v-5.121H26.41V63.004
			 M38.474,67.344c-0.532-0.595-1.955-1.145-3.28-1.145c-0.569,0-1.121,0.102-1.576,0.344c-0.263,0.141-0.638,0.352-1.046,0.587
			c-0.36-0.064-0.969-0.146-1.757-0.146c-1.366,0-3.27,0.246-5.345,1.253c0,0,2.758-0.724,4.832-0.724
			c0.506,0,0.972,0.043,1.347,0.15c-1.386,0.81-2.854,1.692-2.854,1.692c1.284-0.12,4.868-2.451,6.47-2.451
			c0.02,0,0.04,0,0.059,0.001c1.458,0.056,2.835,0.861,3.037,0.984c-0.079,0.299-0.194,0.559-0.194,0.951
			c0,0,0.655-2.117,3.394-2.117c0.261,0,0.541,0.02,0.841,0.062c1.403,0.196,2.671,0.617,4.052,0.927
			c0.497,0.571,1.59,1.575,3.475,1.854c0,0-1.916-0.928-2.705-1.696c0.688,0.122,1.415,0.202,2.212,0.202
			c1.312,0,2.813-0.219,4.636-0.832c0,0-2.379,0.295-4.397,0.295c-0.731,0-1.415-0.039-1.922-0.145
			c-1.32-0.274-4.221-1.409-6.486-1.409C40.02,65.98,38.966,66.324,38.474,67.344 M39.982-0.258l-0.767,0.916
			c-0.019,0.023-0.48,0.577-1.148,1.681c-0.508,0.84-1.236,2.171-1.998,3.985c-0.737-0.344-1.292-0.577-1.697-0.712l-0.982-0.328
			l-0.294,0.994c0,0-0.07,0.239-0.167,0.651c-0.084,0.357-0.208,0.932-0.315,1.633c-0.162,1.054-0.239,2.062-0.231,3.004
			c-0.656-0.313-1.386-0.627-1.942-0.773l-0.92-0.242l-0.287,0.907c-0.012,0.037-0.286,0.913-0.469,2.307
			c-0.128,0.976-0.23,2.37-0.108,3.973c-0.921-0.222-2.126-0.451-3.176-0.451c-0.077,0-0.15,0.001-0.222,0.003l-1.032,0.033
			l0.065,1.03c0.006,0.098,0.182,2.455,2.612,6.717c0.122,0.215,0.25,0.434,0.383,0.656c-0.481,0.045-1.067,0.195-1.42,0.692
			l-0.359,0.504l0.291,0.546c0.833,1.567,1.701,3.335,2.35,4.804c-1.803-1.58-4.281-3.965-6.607-6.919l-0.664-0.844l-0.794,0.723
			c-0.196,0.178-0.65,0.603-1.074,1.082c-0.333-0.328-0.742-0.723-1.186-1.135c-0.624-0.582-1.228-1.111-1.745-1.529
			c-0.311-0.251-0.6-0.469-0.859-0.646c-0.307-0.211-0.576-0.369-0.818-0.48l-0.572-0.263l-0.484,0.403
			c-0.232,0.193-0.825,0.859-1.409,2.911c-0.163-0.079-0.342-0.163-0.536-0.25c-1.429-0.641-2.95-1.138-4.521-1.478l-1.354-0.294
			l0.147,1.377c0.006,0.058,0.156,1.429,0.635,3.104c0.195,0.68,0.415,1.313,0.659,1.894c-0.746,0.146-1.639,0.413-2.366,0.897
			l-0.793,0.529l0.491,0.817c0.085,0.141,1.792,2.97,3.65,4.757c-0.733,0.568-0.981,0.844-1.115,1.022L6.338,38.61l0.551,0.611
			c0,0,0.188,0.208,0.538,0.564c0.996,1.007,2.923,2.826,5.438,4.57c-0.705,0.584-1.298,1.159-1.766,1.713l-0.551,0.651l0.558,0.647
			c0.061,0.07,1.412,1.602,5.418,3.456c-0.547,0.545-1.078,1.156-1.372,1.711l-0.466,0.881l0.879,0.469
			c0.056,0.03,1.021,0.538,3.124,1.181c-1.186,0.454-2.519,1.025-3.655,1.662c-0.435,0.244-0.822,0.486-1.152,0.723l-0.769,0.549
			l0.505,0.799c0.186,0.294,1.053,1.329,4.744,3.209c-1.927,1.743-5.1,4.845-6.368,7.424l-0.794,1.616l1.791-0.18
			c0.127-0.013,3.141-0.317,5.86-0.855c0.171-0.034,0.337-0.068,0.499-0.103c-0.491,1.164-0.574,1.551-0.604,1.689L18.5,72.751
			l1.187,0.056l0.104,0.002c0.376,0,1.753-0.045,5.188-0.547c-0.372,0.766-0.75,1.696-0.968,2.648l-0.313,1.374l1.4-0.157
			c0.11-0.013,2.737-0.315,6.153-1.312c2.077-0.605,3.991-1.336,5.705-2.176c0.339,3.299,2.121,5.557,2.944,6.438
			c0.35,0.37,0.589,0.57,0.615,0.592l0.68,0.565l0.645-0.605l2.631-2.472l0.738-0.693l-0.703-0.729
			c-1.304-1.352-1.841-2.435-2.053-3.175c0.982,0.438,2.081,0.862,3.279,1.265c4.465,1.503,8.895,2.259,9.08,2.291l1.475,0.249
			l-0.333-1.458c-0.217-0.952-0.597-1.882-0.968-2.648c3.433,0.502,4.811,0.547,5.188,0.547l0.106-0.002l1.178-0.057l-0.239-1.152
			c-0.029-0.138-0.112-0.523-0.604-1.688c2.813,0.6,6.182,0.941,6.36,0.959l1.791,0.179l-0.794-1.614
			c-1.295-2.636-4.602-5.831-6.367-7.426c3.69-1.88,4.558-2.915,4.743-3.209l0.504-0.798l-0.768-0.55
			c-0.63-0.45-1.447-0.914-2.428-1.376c-0.793-0.376-1.617-0.717-2.38-1.01c2.103-0.643,3.068-1.15,3.124-1.181l0.88-0.469
			l-0.467-0.881c-0.293-0.553-0.824-1.164-1.373-1.711c0.107-0.05,0.214-0.1,0.32-0.149c0.972-0.463,1.854-0.936,2.62-1.407
			c0.604-0.371,1.143-0.743,1.602-1.104c0.291-0.229,0.544-0.452,0.753-0.661c0.089-0.092,0.125-0.135,0.125-0.135l0.546-0.646
			l-0.54-0.652c-0.551-0.652-1.212-1.254-1.765-1.713c3.525-2.443,5.867-5.015,5.976-5.134l0.555-0.614l-0.5-0.66
			c-0.132-0.173-0.328-0.372-0.602-0.605c-0.158-0.135-0.333-0.276-0.507-0.411c1.509-1.449,2.918-3.586,3.532-4.573l0.116-0.19
			l0.482-0.815l-0.788-0.526c-0.727-0.484-1.62-0.751-2.365-0.897c1.004-2.388,1.281-4.873,1.294-4.997l0.147-1.377l-1.354,0.293
			c-1.955,0.424-3.537,1.038-4.521,1.479c-0.193,0.087-0.372,0.17-0.535,0.25c-0.585-2.05-1.177-2.716-1.409-2.91l-0.487-0.406
			l-0.575,0.268c-0.242,0.113-0.51,0.27-0.815,0.479c-0.257,0.176-0.536,0.387-0.855,0.645c-0.714,0.575-1.565,1.339-2.531,2.272
			c-0.143,0.139-0.277,0.271-0.401,0.394c-0.496-0.557-1.048-1.059-1.075-1.083l-0.793-0.719l-0.663,0.839
			c-0.534,0.675-1.092,1.345-1.657,1.989c-0.996,1.134-2.073,2.255-3.201,3.332c-0.584,0.558-1.171,1.095-1.755,1.606
			c0.648-1.47,1.518-3.242,2.353-4.811l0.292-0.548l-0.362-0.504c-0.353-0.493-0.937-0.643-1.419-0.689
			c2.792-4.676,2.987-7.256,2.995-7.373l0.065-1.03l-1.031-0.033c-0.073-0.002-0.147-0.003-0.223-0.003
			c-1.05,0-2.254,0.229-3.175,0.45c0.102-1.308,0.065-2.638-0.109-3.972c-0.183-1.396-0.458-2.271-0.47-2.308l-0.288-0.906
			l-0.92,0.242c-0.556,0.146-1.286,0.46-1.941,0.773c0.009-0.94-0.069-1.949-0.231-3.005c-0.108-0.706-0.231-1.279-0.316-1.635
			c-0.096-0.409-0.165-0.646-0.165-0.646l-0.291-0.997L45.59,5.608c-0.49,0.164-1.153,0.458-1.697,0.712
			c-1.589-3.782-3.076-5.582-3.144-5.663L39.982-0.258L39.982-0.258z M38.976,43.419c-0.01-0.042-0.021-0.112-0.021-0.22v-4.832
			c0-0.109,0.011-0.179,0.021-0.221l2.511,0c0.002,0.006,0.004,0.012,0.006,0.018v5.241c-0.001,0.005-0.003,0.009-0.005,0.014
			H38.976L38.976,43.419z M32.627,38.832l0.238-0.032l1.847-0.249c0.01,0.002,0.022,0.005,0.035,0.008
			c0.102,0.792,0.292,2.752,0.327,3.114c-0.017,0.011-0.046,0.026-0.092,0.043l-0.51,0.179l-0.041-0.053l-0.574,0.077l-0.44,0.059
			l-0.131,0.018l-0.246,0.033L32.627,38.832L32.627,38.832z M25.792,40.685l2.387-0.782c0.004,0.005,0.008,0.01,0.011,0.015
			l1.63,4.981c0,0.005,0,0.01,0,0.016l-2.386,0.782c-0.023-0.036-0.056-0.1-0.089-0.203c-0.221-0.674-1.187-3.626-1.504-4.594
			C25.807,40.797,25.795,40.728,25.792,40.685L25.792,40.685z M55.606,46.88c0.01-0.042,0.031-0.11,0.081-0.208l0.491-0.968
			l1.693-3.341c0.048-0.096,0.09-0.153,0.117-0.186l2.241,1.135c-0.001,0.007-0.003,0.015-0.004,0.021l-2.368,4.672
			c-0.003,0.003-0.008,0.007-0.012,0.012L55.606,46.88L55.606,46.88z M35.039,49.251h0.342l0.819,3.207h-0.045h-1.889h-0.045
			L35.039,49.251L35.039,49.251z M40.23,49.273h0.207h0.125h1.691c0.005,0.002,0.011,0.004,0.017,0.006v2.512
			c-0.042,0.011-0.112,0.021-0.221,0.021h-1.487H40.23V49.273L40.23,49.273z M39.713,57.55h0.341l0.819,3.208h-0.046h-1.889h-0.046
			L39.713,57.55L39.713,57.55z"/>
	</g>
	<path fill="#FFFFFF" d="M47.752,67.389c-2.047-0.424-7.893-2.919-9.278-0.046c-0.762-0.851-3.341-1.608-4.856-0.801
		c-0.263,0.141-0.637,0.352-1.046,0.587c-0.984-0.178-3.83-0.48-7.102,1.106c0,0,4.271-1.121,6.179-0.573
		c-1.385,0.81-2.854,1.692-2.854,1.692c1.3-0.122,4.958-2.511,6.53-2.45c1.457,0.057,2.834,0.862,3.036,0.983
		c-0.08,0.3-0.194,0.559-0.194,0.952c0,0,0.787-2.54,4.233-2.056c1.405,0.196,2.673,0.618,4.054,0.927
		c0.497,0.572,1.589,1.576,3.473,1.854c0,0-1.915-0.928-2.705-1.696c1.824,0.323,3.92,0.355,6.848-0.631
		C54.07,67.237,49.654,67.785,47.752,67.389z"/>
	<path fill="#FFFFFF" d="M62.143,36.684l6.561-6.988c0-0.227-0.204,0-0.204,0l-4.912,4.815c-0.025-0.719-0.088-3.115,0.143-3.507
		c0,0-0.497,0.122-0.543,3.897l-3.78,3.706c-0.009,0.062,0.037,0.071,0.074,0.092c0.525,0.282,0.63,0.151,0.63,0.151l1.528-1.629
		c3.144,0.074,4.941-1.432,4.941-1.432C63.855,36.818,62.61,36.776,62.143,36.684z"/>
	<path fill="#FFFFFF" d="M39.695,31.903c-0.01,1.608-0.015,2.623-0.015,2.623h0.758l-0.016-1.854
		c5.847-4.504,6.634-7.578,6.634-7.578c-3.146,4.525-5.921,6.356-6.64,6.782l-0.088-10.342c2.32-0.965,3.765-3.001,3.765-3.001
		c-1.729,1.536-3.211,2.326-3.768,2.595L40.224,8.884c-0.162-0.578-0.281,3.073-0.364,7.78c-0.946-0.985-2.962-3.755-2.962-3.755
		c1.23,2.568,2.629,4.046,2.951,4.368c-0.039,2.304-0.069,4.793-0.093,7.177c-1.482-0.767-3.855-3.836-3.855-3.836
		c1.504,3.083,3.25,4.101,3.85,4.375c-0.023,2.343-0.04,4.497-0.051,6.18c-3.317-1.976-6.822-6.383-6.822-6.383
		C34.743,28.773,39.021,31.493,39.695,31.903z"/>
	<path fill="#FFFFFF" d="M20.016,39.062c0,0,0.427-0.278,0.464-0.327c0.037-0.049-0.111-0.186-0.111-0.186l-0.561-0.54
		c-0.08-3.288-1.647-4.503-1.647-4.503c1.27,1.923,1.238,3.656,1.211,4.083l-3.5-3.372c0.056-0.603,0.148-2.413-0.658-3.501
		c0,0,0.45,1.387,0.224,3.083l-4.452-4.289c-0.132,0.101,3.365,3.785,6,6.531c-0.544,0.043-2.267,0.053-4.855-1.222
		c0,0,1.119,1.577,5.322,1.708v-0.001c1.319,1.372,2.351,2.438,2.375,2.466C19.952,39.144,20.016,39.062,20.016,39.062z"/>
	<polygon fill="#FFFFFF" points="26.411,56.55 26.411,63.004 27.077,63.004 27.743,63.004 30.157,63.004 30.157,61.67 27.743,61.67 
		27.743,56.55 	"/>
	<path fill="#FFFFFF" d="M38.939,61.759h1.89l0.317,1.245h1.333l-1.646-6.453H40.27H39.5h-0.562l-1.647,6.453h1.333L38.939,61.759z
		 M39.884,58.058l0.645,2.522H39.24L39.884,58.058z"/>
	<polygon fill="#FFFFFF" points="35.786,57.883 35.786,56.55 33.146,56.55 32.48,56.55 31.813,56.55 31.813,63.004 32.48,63.004 
		33.146,63.004 35.786,63.004 35.786,61.67 33.146,61.67 33.146,60.444 35.054,60.444 35.054,59.109 33.146,59.109 33.146,57.883 	
		"/>
	<path fill="#FFFFFF" d="M36.472,54.703h1.333l-1.647-6.452h-0.562h-0.77h-0.563l-1.648,6.452h1.333l0.318-1.245h1.889
		L36.472,54.703z M34.565,52.28l0.645-2.521l0.644,2.521H34.565z"/>
	<polygon fill="#FFFFFF" points="48.704,53.371 46.424,53.371 46.424,48.273 45.091,48.273 45.091,54.727 46.424,54.727 
		46.424,54.703 48.704,54.703 	"/>
	<polygon fill="#FFFFFF" points="51.531,54.703 53.965,54.703 53.965,53.371 51.531,53.371 51.531,52.144 53.217,52.144 
		53.217,50.812 51.531,50.812 51.531,49.584 53.965,49.584 53.965,48.253 51.531,48.253 50.865,48.253 50.198,48.253 50.198,54.703 
		51.16,54.703 	"/>
	<polygon fill="#FFFFFF" points="47.916,57.883 47.916,56.55 45.278,56.55 44.61,56.55 43.943,56.55 43.943,63.004 45.278,63.004 
		45.278,60.444 47.186,60.444 47.186,59.109 45.278,59.109 45.278,57.883 	"/>
	<path fill="#FFFFFF" d="M43.271,51.85c0,0,0-1.826,0-2.649c0-0.822-0.927-0.927-0.927-0.927h-1.781h-0.125H39.23v6.453h1.332
		v-1.914c0.179,0,0.593,0,1.487,0C43.33,52.812,43.271,51.85,43.271,51.85z M41.97,51.248c0,0.261-0.216,0.307-0.216,0.307
		l-1.192-0.01v-2.121c0.233,0,0.74,0,1.056,0c0.419,0,0.351,0.353,0.351,0.353S41.97,50.988,41.97,51.248z"/>
	<path fill="#FFFFFF" d="M33.715,45.229l-0.297-2.24c0.087-0.013,0.283-0.037,0.572-0.078l1.502,1.955l1.375-0.197l-1.556-2.009
		c0.852-0.299,0.762-1.022,0.762-1.022s-0.234-2.442-0.345-3.276s-1.065-0.812-1.065-0.812l-1.932,0.26l-1.225,0.164l0.957,7.43
		L33.715,45.229z M34.086,38.812c0.425-0.057,0.405,0.309,0.405,0.309s0.15,1.821,0.185,2.084c0.035,0.264-0.176,0.34-0.176,0.34
		l-1.25,0.156l-0.357-2.692C33.278,38.941,33.82,38.848,34.086,38.812z"/>
	<path fill="#FFFFFF" d="M41.566,44.42c0.824,0,0.926-0.925,0.926-0.925v-5.422c0,0-0.101-0.927-0.926-0.927
		c-0.823,0-2.649,0-2.649,0s-0.963-0.061-0.963,1.221c0,1.018,0,4.123,0,4.832c0,1.28,0.963,1.22,0.963,1.22
		S40.743,44.42,41.566,44.42z M39.213,38.663c0,0,0.045-0.215,0.306-0.215c0.26,0,1.366,0,1.366,0s0.35-0.068,0.35,0.352
		c0,0.293,0,3.822,0,3.97c0,0.42-0.35,0.352-0.35,0.352s-1.106,0-1.366,0c-0.26,0-0.306-0.217-0.306-0.217V38.663z"/>
	<path fill="#FFFFFF" d="M58.71,48.538l2.451-4.836c0,0,0.328-0.872-0.407-1.245s-2.363-1.197-2.363-1.197s-0.832-0.491-1.411,0.652
		c-0.459,0.907-1.863,3.678-2.185,4.309c-0.579,1.145,0.308,1.525,0.308,1.525s1.628,0.826,2.363,1.199
		C58.2,49.316,58.71,48.538,58.71,48.538z M57.444,47.476c0,0-0.985-0.499-1.218-0.616c-0.233-0.118-0.176-0.331-0.176-0.331
		l1.919-3.783c0,0,0.138-0.173,0.369-0.055c0.233,0.118,1.22,0.616,1.22,0.616s0.344,0.1,0.153,0.474
		c-0.133,0.263-1.729,3.411-1.795,3.542C57.727,47.696,57.444,47.476,57.444,47.476z"/>
	<path fill="#FFFFFF" d="M26.393,45.804c0.398,1.218,1.296,0.861,1.296,0.861s1.734-0.568,2.517-0.825
		c0.783-0.258,0.592-1.168,0.592-1.168l-1.687-5.153c0,0-0.385-0.849-1.168-0.592c-0.783,0.256-2.517,0.825-2.517,0.825
		s-0.936,0.243-0.537,1.46C25.207,42.179,26.173,45.13,26.393,45.804z M26.402,40.801c0.248-0.081,1.299-0.425,1.299-0.425
		s0.313-0.174,0.443,0.225c0.091,0.28,1.189,3.634,1.235,3.773c0.131,0.397-0.226,0.444-0.226,0.444s-1.05,0.343-1.297,0.423
		c-0.249,0.082-0.358-0.109-0.358-0.109l-1.319-4.031C26.179,41.1,26.154,40.883,26.402,40.801z"/>
	<polygon fill="#FFFFFF" points="31.167,48.273 30.157,48.273 28.796,51.328 27.413,48.273 26.411,48.273 26.411,54.727 
		27.616,54.727 27.616,51.956 28.796,54.322 29.962,52.087 29.962,54.727 31.167,54.727 	"/>
	<polygon fill="#FFFFFF" points="44.94,37.397 43.782,44.593 45.11,44.751 45.757,40.784 47.23,45.183 48.341,45.404 49.521,38.177 
		48.228,37.905 47.54,42.023 45.962,37.549 	"/>
	<polygon fill="#FFFFFF" points="51.848,46.514 53.883,40.716 55.461,41.237 55.885,40.18 51.456,38.593 51.016,39.771 
		52.68,40.345 50.684,45.999 	"/>
	<polygon fill="#FFFFFF" points="21.787,42.691 23.256,41.851 22.764,40.791 18.638,43.001 19.248,44.08 20.655,43.279 
		23.625,48.812 24.792,48.138 	"/>
	<path fill="#FFFFFF" d="M52.906,56.55h-2.305c-1.005,0.137-0.975,1.108-0.975,1.108s-0.026,0.796,0,1.316
		c0.023,0.505,0.937,0.885,0.937,0.885l1.701,0.645c0.43,0.173,0.43,0.393,0.43,0.393v0.43c0,0.612-0.408,0.544-0.408,0.544h-1.141
		c-0.424,0-0.355-0.703-0.355-0.703H49.52v0.68c0.057,1.09,1.164,1.155,1.164,1.155h2.305c0.936-0.06,0.977-1.108,0.977-1.108
		s0-0.795,0-1.315c0-0.585-0.375-0.742-0.375-0.742l-2.21-0.929c-0.539-0.206-0.485-0.408-0.485-0.408v-0.273
		c0-0.612,0.574-0.545,0.574-0.545h0.589c0.824,0,0.749,0.704,0.749,0.704h1.263v-0.68C54.07,56.55,52.906,56.55,52.906,56.55z"/>
</g>
</svg>
